videoklipp\Battle Los Angeles - Official Site Trailer.mp4
Format                           : MPEG-4
Format profile                   : Base Media / Version 2
Codec ID                         : mp42
File size                        : 26.1 MiB
Duration                         : 2mn 34s
Overall bit rate                 : 1 417 Kbps
Performer                        : Sony Pictures Entertainment
Encoded date                     : UTC 2011-01-11 19:34:26
Tagged date                      : UTC 2011-01-11 19:34:26
Writing library                  : Apple QuickTime
Copyright                        : ©2010 Sony Pictures Digital, Inc. All Rights Reserved.

Video
ID                               : 1
Format                           : AVC
Format/Info                      : Advanced Video Codec
Format profile                   : Main@L4.0
Format settings, CABAC           : No
Format settings, ReFrames        : 6 frames
Codec ID                         : avc1
Codec ID/Info                    : Advanced Video Coding
Duration                         : 2mn 34s
Bit rate mode                    : Variable
Bit rate                         : 1 288 Kbps
Maximum bit rate                 : 1 072 Kbps
Width                            : 800 pixels
Height                           : 448 pixels
Display aspect ratio             : 16:9
Original display aspect ratio    : 16:9
Frame rate mode                  : Variable
Frame rate                       : 23.976 fps
Original frame rate              : 23.955 fps
Minimum frame rate               : 19.334 fps
Maximum frame rate               : 32.592 fps
Standard                         : Component
Color space                      : YUV
Chroma subsampling               : 4:2:0
Bit depth                        : 8 bits
Scan type                        : Progressive
Bits/(Pixel*Frame)               : 0.150
Stream size                      : 23.7 MiB (91%)
Language                         : English
Encoded date                     : UTC 2011-01-11 19:34:26
Tagged date                      : UTC 2011-01-11 19:34:26

Audio
ID                               : 2
Format                           : AAC
Format/Info                      : Advanced Audio Codec
Format profile                   : LC
Codec ID                         : 40
Duration                         : 2mn 34s
Bit rate mode                    : Variable
Bit rate                         : 128 Kbps
Maximum bit rate                 : 134 Kbps
Channel(s)                       : 2 channels
Channel positions                : Front: L R
Sampling rate                    : 48.0 KHz
Compression mode                 : Lossy
Stream size                      : 2.36 MiB (9%)
Language                         : English
Encoded date                     : UTC 2011-01-11 19:34:26
Tagged date                      : UTC 2011-01-11 19:34:26